<?xml version="1.0" encoding="UTF-8"?>
<!--Generator: Apple Native CoreSVG 175-->
<!DOCTYPE svg
PUBLIC "-//W3C//DTD SVG 1.1//EN"
       "http://www.w3.org/Graphics/SVG/1.1/DTD/svg11.dtd">
<svg version="1.1" xmlns="http://www.w3.org/2000/svg" xmlns:xlink="http://www.w3.org/1999/xlink" width="3300" height="2200">
 <!--glyph: "uni100396.medium", point size: 100.0, font version: "17.3d3e1", template writer version: "65.1"-->
 <g id="Notes">
  <rect height="2200" id="artboard" style="fill:white;opacity:1" width="3300" x="0" y="0"/>
  <line style="fill:none;stroke:black;opacity:1;stroke-width:0.5;" x1="263" x2="3036" y1="292" y2="292"/>
  <text style="stroke:none;fill:black;font-family:sans-serif;font-size:13;font-weight:bold;" transform="matrix(1 0 0 1 263 322)">Weight/Scale Variations</text>
  <text style="stroke:none;fill:black;font-family:sans-serif;font-size:13;text-anchor:middle;" transform="matrix(1 0 0 1 559.711 322)">Ultralight</text>
  <text style="stroke:none;fill:black;font-family:sans-serif;font-size:13;text-anchor:middle;" transform="matrix(1 0 0 1 856.422 322)">Thin</text>
  <text style="stroke:none;fill:black;font-family:sans-serif;font-size:13;text-anchor:middle;" transform="matrix(1 0 0 1 1153.13 322)">Light</text>
  <text style="stroke:none;fill:black;font-family:sans-serif;font-size:13;text-anchor:middle;" transform="matrix(1 0 0 1 1449.84 322)">Regular</text>
  <text style="stroke:none;fill:black;font-family:sans-serif;font-size:13;text-anchor:middle;" transform="matrix(1 0 0 1 1746.56 322)">Medium</text>
  <text style="stroke:none;fill:black;font-family:sans-serif;font-size:13;text-anchor:middle;" transform="matrix(1 0 0 1 2043.27 322)">Semibold</text>
  <text style="stroke:none;fill:black;font-family:sans-serif;font-size:13;text-anchor:middle;" transform="matrix(1 0 0 1 2339.98 322)">Bold</text>
  <text style="stroke:none;fill:black;font-family:sans-serif;font-size:13;text-anchor:middle;" transform="matrix(1 0 0 1 2636.69 322)">Heavy</text>
  <text style="stroke:none;fill:black;font-family:sans-serif;font-size:13;text-anchor:middle;" transform="matrix(1 0 0 1 2933.4 322)">Black</text>
  <line style="fill:none;stroke:black;opacity:1;stroke-width:0.5;" x1="263" x2="3036" y1="1903" y2="1903"/>
  <g transform="matrix(1 0 0 1 263 1933)">
   <path d="M9.24805 0.830078Q10.8691 0.830078 12.2949 0.214844Q13.7207-0.400391 14.8096-1.49414Q15.8984-2.58789 16.5186-4.01367Q17.1387-5.43945 17.1387-7.05078Q17.1387-8.66211 16.5186-10.0879Q15.8984-11.5137 14.8047-12.6074Q13.7109-13.7012 12.2852-14.3164Q10.8594-14.9316 9.23828-14.9316Q7.62695-14.9316 6.20117-14.3164Q4.77539-13.7012 3.69141-12.6074Q2.60742-11.5137 1.9873-10.0879Q1.36719-8.66211 1.36719-7.05078Q1.36719-5.43945 1.9873-4.01367Q2.60742-2.58789 3.69629-1.49414Q4.78516-0.400391 6.21094 0.214844Q7.63672 0.830078 9.24805 0.830078ZM9.24805-0.654297Q7.91992-0.654297 6.7627-1.14746Q5.60547-1.64062 4.73145-2.51953Q3.85742-3.39844 3.36426-4.56055Q2.87109-5.72266 2.87109-7.05078Q2.87109-8.37891 3.35938-9.54102Q3.84766-10.7031 4.72168-11.582Q5.5957-12.4609 6.75293-12.9541Q7.91016-13.4473 9.23828-13.4473Q10.5762-13.4473 11.7334-12.9541Q12.8906-12.4609 13.7695-11.582Q14.6484-10.7031 15.1465-9.54102Q15.6445-8.37891 15.6445-7.05078Q15.6445-5.72266 15.1514-4.56055Q14.6582-3.39844 13.7842-2.51953Q12.9102-1.64062 11.748-1.14746Q10.5859-0.654297 9.24805-0.654297ZM5.6543-7.05078Q5.6543-6.72852 5.85938-6.52832Q6.06445-6.32812 6.40625-6.32812L8.51562-6.32812L8.51562-4.20898Q8.51562-3.88672 8.71094-3.67676Q8.90625-3.4668 9.23828-3.4668Q9.56055-3.4668 9.77051-3.67676Q9.98047-3.88672 9.98047-4.20898L9.98047-6.32812L12.0898-6.32812Q12.4219-6.32812 12.627-6.52832Q12.832-6.72852 12.832-7.05078Q12.832-7.38281 12.627-7.58789Q12.4219-7.79297 12.0898-7.79297L9.98047-7.79297L9.98047-9.90234Q9.98047-10.2344 9.77051-10.4443Q9.56055-10.6543 9.23828-10.6543Q8.90625-10.6543 8.71094-10.4443Q8.51562-10.2344 8.51562-9.90234L8.51562-7.79297L6.40625-7.79297Q6.06445-7.79297 5.85938-7.58789Q5.6543-7.38281 5.6543-7.05078Z"/>
  </g>
  <g transform="matrix(1 0 0 1 281.867 1933)">
   <path d="M11.709 2.91016Q13.75 2.91016 15.5518 2.12891Q17.3535 1.34766 18.7305-0.0292969Q20.1074-1.40625 20.8887-3.20801Q21.6699-5.00977 21.6699-7.05078Q21.6699-9.0918 20.8887-10.8936Q20.1074-12.6953 18.7305-14.0723Q17.3535-15.4492 15.5469-16.2305Q13.7402-17.0117 11.6992-17.0117Q9.6582-17.0117 7.85645-16.2305Q6.05469-15.4492 4.68262-14.0723Q3.31055-12.6953 2.5293-10.8936Q1.74805-9.0918 1.74805-7.05078Q1.74805-5.00977 2.5293-3.20801Q3.31055-1.40625 4.6875-0.0292969Q6.06445 1.34766 7.86621 2.12891Q9.66797 2.91016 11.709 2.91016ZM11.709 1.25Q9.98047 1.25 8.47656 0.605469Q6.97266-0.0390625 5.83496-1.17676Q4.69727-2.31445 4.05762-3.81836Q3.41797-5.32227 3.41797-7.05078Q3.41797-8.7793 4.05762-10.2832Q4.69727-11.7871 5.83008-12.9297Q6.96289-14.0723 8.4668-14.7119Q9.9707-15.3516 11.6992-15.3516Q13.4277-15.3516 14.9316-14.7119Q16.4355-14.0723 17.5781-12.9297Q18.7207-11.7871 19.3652-10.2832Q20.0098-8.7793 20.0098-7.05078Q20.0098-5.32227 19.3701-3.81836Q18.7305-2.31445 17.5928-1.17676Q16.4551-0.0390625 14.9463 0.605469Q13.4375 1.25 11.709 1.25ZM7.17773-7.05078Q7.17773-6.69922 7.41211-6.47461Q7.64648-6.25 8.01758-6.25L10.8887-6.25L10.8887-3.36914Q10.8887-2.99805 11.1133-2.76855Q11.3379-2.53906 11.6895-2.53906Q12.0605-2.53906 12.29-2.76855Q12.5195-2.99805 12.5195-3.36914L12.5195-6.25L15.4004-6.25Q15.7715-6.25 16.001-6.47461Q16.2305-6.69922 16.2305-7.05078Q16.2305-7.42188 16.001-7.65137Q15.7715-7.88086 15.4004-7.88086L12.5195-7.88086L12.5195-10.752Q12.5195-11.1328 12.29-11.3623Q12.0605-11.5918 11.6895-11.5918Q11.3379-11.5918 11.1133-11.3574Q10.8887-11.123 10.8887-10.752L10.8887-7.88086L8.01758-7.88086Q7.63672-7.88086 7.40723-7.65137Q7.17773-7.42188 7.17773-7.05078Z"/>
  </g>
  <g transform="matrix(1 0 0 1 305.646 1933)">
   <path d="M14.9707 5.66406Q17.0605 5.66406 18.96 5.01465Q20.8594 4.36523 22.4512 3.19336Q24.043 2.02148 25.2197 0.429688Q26.3965-1.16211 27.0459-3.06641Q27.6953-4.9707 27.6953-7.05078Q27.6953-9.14062 27.0459-11.04Q26.3965-12.9395 25.2197-14.5312Q24.043-16.123 22.4512-17.2998Q20.8594-18.4766 18.9551-19.126Q17.0508-19.7754 14.9609-19.7754Q12.8711-19.7754 10.9717-19.126Q9.07227-18.4766 7.48535-17.2998Q5.89844-16.123 4.72168-14.5312Q3.54492-12.9395 2.90039-11.04Q2.25586-9.14062 2.25586-7.05078Q2.25586-4.9707 2.90527-3.06641Q3.55469-1.16211 4.72656 0.429688Q5.89844 2.02148 7.49023 3.19336Q9.08203 4.36523 10.9814 5.01465Q12.8809 5.66406 14.9707 5.66406ZM14.9707 3.84766Q13.1641 3.84766 11.5283 3.2959Q9.89258 2.74414 8.53516 1.74805Q7.17773 0.751953 6.17676-0.610352Q5.17578-1.97266 4.62891-3.6084Q4.08203-5.24414 4.08203-7.05078Q4.08203-8.86719 4.62891-10.5029Q5.17578-12.1387 6.17188-13.501Q7.16797-14.8633 8.52539-15.8594Q9.88281-16.8555 11.5186-17.4023Q13.1543-17.9492 14.9609-17.9492Q16.7773-17.9492 18.4131-17.4023Q20.0488-16.8555 21.4111-15.8594Q22.7734-14.8633 23.7695-13.501Q24.7656-12.1387 25.3174-10.5029Q25.8691-8.86719 25.8691-7.05078Q25.8789-5.24414 25.332-3.6084Q24.7852-1.97266 23.7842-0.610352Q22.7832 0.751953 21.4209 1.74805Q20.0586 2.74414 18.4229 3.2959Q16.7871 3.84766 14.9707 3.84766ZM9.19922-7.05078Q9.19922-6.66992 9.45801-6.4209Q9.7168-6.17188 10.1172-6.17188L14.0625-6.17188L14.0625-2.2168Q14.0625-1.81641 14.3115-1.55762Q14.5605-1.29883 14.9512-1.29883Q15.3516-1.29883 15.6104-1.55273Q15.8691-1.80664 15.8691-2.2168L15.8691-6.17188L19.8242-6.17188Q20.2246-6.17188 20.4785-6.4209Q20.7324-6.66992 20.7324-7.05078Q20.7324-7.46094 20.4785-7.71484Q20.2246-7.96875 19.8242-7.96875L15.8691-7.96875L15.8691-11.9141Q15.8691-12.3242 15.6104-12.583Q15.3516-12.8418 14.9512-12.8418Q14.5605-12.8418 14.3115-12.583Q14.0625-12.3242 14.0625-11.9141L14.0625-7.96875L10.1172-7.96875Q9.70703-7.96875 9.45312-7.71484Q9.19922-7.46094 9.19922-7.05078Z"/>
  </g>
  <text style="stroke:none;fill:black;font-family:sans-serif;font-size:13;font-weight:bold;" transform="matrix(1 0 0 1 263 1953)">Design Variations</text>
  <text style="stroke:none;fill:black;font-family:sans-serif;font-size:13;" transform="matrix(1 0 0 1 263 1971)">Symbols are supported in up to nine weights and three scales.</text>
  <text style="stroke:none;fill:black;font-family:sans-serif;font-size:13;" transform="matrix(1 0 0 1 263 1989)">For optimal layout with text and other symbols, vertically align</text>
  <text style="stroke:none;fill:black;font-family:sans-serif;font-size:13;" transform="matrix(1 0 0 1 263 2007)">symbols with the adjacent text.</text>
  <line style="fill:none;stroke:#00AEEF;stroke-width:0.5;opacity:1.0;" x1="776" x2="776" y1="1919" y2="1933"/>
  <g transform="matrix(1 0 0 1 776 1933)">
   <path d="M3.31055 0.15625Q3.70117 0.15625 3.91602-0.00976562Q4.13086-0.175781 4.26758-0.585938L5.52734-4.0332L11.2891-4.0332L12.5488-0.585938Q12.6855-0.175781 12.9004-0.00976562Q13.1152 0.15625 13.4961 0.15625Q13.8867 0.15625 14.1162-0.0585938Q14.3457-0.273438 14.3457-0.644531Q14.3457-0.869141 14.2383-1.17188L9.6582-13.3691Q9.48242-13.8184 9.17969-14.043Q8.87695-14.2676 8.4082-14.2676Q7.5-14.2676 7.17773-13.3789L2.59766-1.16211Q2.49023-0.859375 2.49023-0.634766Q2.49023-0.263672 2.70996-0.0537109Q2.92969 0.15625 3.31055 0.15625ZM6.00586-5.51758L8.37891-12.0898L8.42773-12.0898L10.8008-5.51758Z"/>
  </g>
  <line style="fill:none;stroke:#00AEEF;stroke-width:0.5;opacity:1.0;" x1="793.197" x2="793.197" y1="1919" y2="1933"/>
  <text style="stroke:none;fill:black;font-family:sans-serif;font-size:13;font-weight:bold;" transform="matrix(1 0 0 1 776 1953)">Margins</text>
  <text style="stroke:none;fill:black;font-family:sans-serif;font-size:13;" transform="matrix(1 0 0 1 776 1971)">Leading and trailing margins on the left and right side of each symbol</text>
  <text style="stroke:none;fill:black;font-family:sans-serif;font-size:13;" transform="matrix(1 0 0 1 776 1989)">can be adjusted by modifying the x-location of the margin guidelines.</text>
  <text style="stroke:none;fill:black;font-family:sans-serif;font-size:13;" transform="matrix(1 0 0 1 776 2007)">Modifications are automatically applied proportionally to all</text>
  <text style="stroke:none;fill:black;font-family:sans-serif;font-size:13;" transform="matrix(1 0 0 1 776 2025)">scales and weights.</text>
  <g transform="matrix(1 0 0 1 1289 1933)">
   <path d="M2.8418 1.86523L4.54102 3.57422Q5.18555 4.22852 5.90332 4.17969Q6.62109 4.13086 7.31445 3.35938L18.0078-8.42773L17.041-9.4043L6.42578 2.27539Q6.16211 2.57812 5.89355 2.61719Q5.625 2.65625 5.27344 2.30469L4.10156 1.14258Q3.75 0.791016 3.79395 0.522461Q3.83789 0.253906 4.14062-0.0195312L15.6152-10.8203L14.6387-11.7871L3.04688-0.898438Q2.30469-0.214844 2.25098 0.498047Q2.19727 1.21094 2.8418 1.86523ZM9.25781-16.3281Q8.94531-16.0254 8.90625-15.6348Q8.86719-15.2441 9.04297-14.9512Q9.21875-14.6777 9.55566-14.541Q9.89258-14.4043 10.3809-14.5215Q11.4746-14.7754 12.5977-14.7314Q13.7207-14.6875 14.7949-13.9844L14.209-12.5293Q13.9551-11.9043 14.0674-11.4404Q14.1797-10.9766 14.5801-10.5664L16.875-8.25195Q17.2363-7.88086 17.5781-7.82227Q17.9199-7.76367 18.3398-7.8418L19.4043-8.03711L20.0684-7.36328L20.0293-6.80664Q20-6.43555 20.1221-6.12305Q20.2441-5.81055 20.6055-5.44922L21.3672-4.70703Q21.7285-4.3457 22.1533-4.33105Q22.5781-4.31641 22.9297-4.66797L25.8398-7.58789Q26.1914-7.93945 26.1816-8.35449Q26.1719-8.76953 25.8105-9.13086L25.0391-9.89258Q24.6875-10.2539 24.3799-10.3857Q24.0723-10.5176 23.7109-10.4883L23.1348-10.4395L22.4902-11.0742L22.7344-12.1973Q22.832-12.6172 22.6953-12.9834Q22.5586-13.3496 22.1191-13.7891L19.9219-15.9766Q18.6719-17.2168 17.2607-17.8369Q15.8496-18.457 14.4189-18.4814Q12.9883-18.5059 11.665-17.959Q10.3418-17.4121 9.25781-16.3281ZM10.752-15.957Q11.6602-16.6211 12.7002-16.9043Q13.7402-17.1875 14.8047-17.085Q15.8691-16.9824 16.8701-16.5137Q17.8711-16.0449 18.7012-15.2051L21.1328-12.793Q21.3086-12.6172 21.3525-12.4512Q21.3965-12.2852 21.3379-12.0312L21.0156-10.5469L22.5195-9.0625L23.5059-9.12109Q23.6914-9.13086 23.7891-9.09668Q23.8867-9.0625 24.0332-8.91602L24.6094-8.33984L22.168-5.89844L21.5918-6.47461Q21.4453-6.62109 21.4062-6.71875Q21.3672-6.81641 21.377-7.01172L21.4453-7.98828L19.9512-9.47266L18.4277-9.21875Q18.1836-9.16992 18.042-9.2041Q17.9004-9.23828 17.7148-9.41406L15.7129-11.416Q15.5176-11.5918 15.4932-11.7529Q15.4688-11.9141 15.5859-12.1875L16.4648-14.2773Q15.293-15.3711 13.8281-15.791Q12.3633-16.2109 10.8398-15.7617Q10.7227-15.7324 10.6885-15.8057Q10.6543-15.8789 10.752-15.957Z"/>
  </g>
  <text style="stroke:none;fill:black;font-family:sans-serif;font-size:13;font-weight:bold;" transform="matrix(1 0 0 1 1289 1953)">Exporting</text>
  <text style="stroke:none;fill:black;font-family:sans-serif;font-size:13;" transform="matrix(1 0 0 1 1289 1971)">Symbols should be outlined when exporting to ensure the</text>
  <text style="stroke:none;fill:black;font-family:sans-serif;font-size:13;" transform="matrix(1 0 0 1 1289 1989)">design is preserved when submitting to Xcode.</text>
  <text id="template-version" style="stroke:none;fill:black;font-family:sans-serif;font-size:13;text-anchor:end;" transform="matrix(1 0 0 1 3036 1933)">Template v.3.0</text>
  <text style="stroke:none;fill:black;font-family:sans-serif;font-size:13;text-anchor:end;" transform="matrix(1 0 0 1 3036 1951)">Requires Xcode 13 or greater</text>
  <text id="descriptive-name" style="stroke:none;fill:black;font-family:sans-serif;font-size:13;text-anchor:end;" transform="matrix(1 0 0 1 3036 1969)">Generated from wrench.fill</text>
  <text style="stroke:none;fill:black;font-family:sans-serif;font-size:13;text-anchor:end;" transform="matrix(1 0 0 1 3036 1987)">Typeset at 100 points</text>
  <text style="stroke:none;fill:black;font-family:sans-serif;font-size:13;" transform="matrix(1 0 0 1 263 726)">Small</text>
  <text style="stroke:none;fill:black;font-family:sans-serif;font-size:13;" transform="matrix(1 0 0 1 263 1156)">Medium</text>
  <text style="stroke:none;fill:black;font-family:sans-serif;font-size:13;" transform="matrix(1 0 0 1 263 1586)">Large</text>
 </g>
 <g id="Guides">
  <g id="H-reference" style="fill:#27AAE1;stroke:none;" transform="matrix(1 0 0 1 339 696)">
   <path d="M0.993347 0L3.6377 0L29.3282-67.1326L30.0301-67.1326L30.0301-70.459L28.1227-70.459ZM11.6882-24.4797L46.9818-24.4797L46.2311-26.7288L12.4382-26.7288ZM55.1193 0L57.7637 0L30.6381-70.459L29.4327-70.459L29.4327-67.1326Z"/>
  </g>
  <line id="Baseline-S" style="fill:none;stroke:#27AAE1;opacity:1;stroke-width:0.5;" x1="263" x2="3036" y1="696" y2="696"/>
  <line id="Capline-S" style="fill:none;stroke:#27AAE1;opacity:1;stroke-width:0.5;" x1="263" x2="3036" y1="625.541" y2="625.541"/>
  <g id="H-reference" style="fill:#27AAE1;stroke:none;" transform="matrix(1 0 0 1 339 1126)">
   <path d="M0.993347 0L3.6377 0L29.3282-67.1326L30.0301-67.1326L30.0301-70.459L28.1227-70.459ZM11.6882-24.4797L46.9818-24.4797L46.2311-26.7288L12.4382-26.7288ZM55.1193 0L57.7637 0L30.6381-70.459L29.4327-70.459L29.4327-67.1326Z"/>
  </g>
  <line id="Baseline-M" style="fill:none;stroke:#27AAE1;opacity:1;stroke-width:0.5;" x1="263" x2="3036" y1="1126" y2="1126"/>
  <line id="Capline-M" style="fill:none;stroke:#27AAE1;opacity:1;stroke-width:0.5;" x1="263" x2="3036" y1="1055.54" y2="1055.54"/>
  <g id="H-reference" style="fill:#27AAE1;stroke:none;" transform="matrix(1 0 0 1 339 1556)">
   <path d="M0.993347 0L3.6377 0L29.3282-67.1326L30.0301-67.1326L30.0301-70.459L28.1227-70.459ZM11.6882-24.4797L46.9818-24.4797L46.2311-26.7288L12.4382-26.7288ZM55.1193 0L57.7637 0L30.6381-70.459L29.4327-70.459L29.4327-67.1326Z"/>
  </g>
  <line id="Baseline-L" style="fill:none;stroke:#27AAE1;opacity:1;stroke-width:0.5;" x1="263" x2="3036" y1="1556" y2="1556"/>
  <line id="Capline-L" style="fill:none;stroke:#27AAE1;opacity:1;stroke-width:0.5;" x1="263" x2="3036" y1="1485.54" y2="1485.54"/>
  <line id="left-margin-Ultralight-S" style="fill:none;stroke:#00AEEF;stroke-width:0.5;opacity:1.0;" x1="507.443" x2="507.443" y1="600.785" y2="720.121"/>
  <line id="right-margin-Ultralight-S" style="fill:none;stroke:#00AEEF;stroke-width:0.5;opacity:1.0;" x1="611.98" x2="611.98" y1="600.785" y2="720.121"/>
  <line id="left-margin-Regular-S" style="fill:none;stroke:#00AEEF;stroke-width:0.5;opacity:1.0;" x1="1396.3" x2="1396.3" y1="600.785" y2="720.121"/>
  <line id="right-margin-Regular-S" style="fill:none;stroke:#00AEEF;stroke-width:0.5;opacity:1.0;" x1="1503.38" x2="1503.38" y1="600.785" y2="720.121"/>
  <line id="left-margin-Black-S" style="fill:none;stroke:#00AEEF;stroke-width:0.5;opacity:1.0;" x1="2875.27" x2="2875.27" y1="600.785" y2="720.121"/>
  <line id="right-margin-Black-S" style="fill:none;stroke:#00AEEF;stroke-width:0.5;opacity:1.0;" x1="2991.53" x2="2991.53" y1="600.785" y2="720.121"/>
 </g>
 <g id="Symbols">
  <g id="Black-S" transform="matrix(1 0 0 1 2875.27 696)">
   <path d="M14.6973 8.25195Q18.7012 12.207 23.6328 13.5254Q28.5645 14.8438 33.4717 13.3301Q38.3789 11.8164 42.2852 7.32422Q45.1172 4.10156 48.0713-0.146484Q51.0254-4.39453 54.2236-9.13086Q57.4219-13.8672 61.0352-18.6035Q64.6484-23.3398 68.8477-27.5391Q71.0938-29.7852 73.5596-30.4932Q76.0254-31.2012 78.8574-31.3477Q81.6895-31.4941 84.9609-31.8848Q88.2324-32.2754 92.0898-33.7891L85.2539-58.9844Q84.7656-60.8887 85.5957-62.3779Q86.4258-63.8672 88.3301-64.4531L104.98-69.5312Q104.443-71.582 103.223-74.2432Q102.002-76.9043 99.8535-79.0527Q95.9961-83.0078 91.04-85.0586Q86.084-87.1094 80.7861-87.2314Q75.4883-87.3535 70.4834-85.5469Q65.4785-83.7402 61.5234-79.9805Q56.9336-75.5859 54.9805-71.3867Q53.0273-67.1875 52.6123-63.3301Q52.1973-59.4727 52.2949-56.1035Q52.3926-52.7344 52.002-49.9756Q51.6113-47.2168 49.6094-45.2148Q45.7031-41.3574 41.1377-37.8906Q36.5723-34.4238 31.9092-31.25Q27.2461-28.0762 22.998-25.1465Q18.75-22.2168 15.5273-19.3359Q11.084-15.3809 9.59473-10.4736Q8.10547-5.56641 9.42383-0.634766Q10.7422 4.29688 14.6973 8.25195ZM28.3691-1.46484Q26.7578-1.46484 25.5859-2.63672Q24.4141-3.80859 24.4141-5.41992Q24.4141-7.03125 25.5859-8.20312Q26.7578-9.375 28.3691-9.375Q30.0293-9.375 31.1768-8.20312Q32.3242-7.03125 32.3242-5.41992Q32.3242-3.80859 31.1768-2.63672Q30.0293-1.46484 28.3691-1.46484ZM65.7227-52.7832Q64.209-52.3438 63.8184-53.8574Q63.6719-54.4434 63.9893-54.9805Q64.3066-55.5176 64.8926-55.6641L73.2422-57.8613Q73.8281-58.0078 74.292-57.7148Q74.7559-57.4219 75-56.8359Q75.293-56.2012 74.9268-55.6641Q74.5605-55.127 73.9746-54.9805ZM66.748-48.584Q65.332-48.1934 64.8926-49.6582Q64.7461-50.2441 65.0391-50.7812Q65.332-51.3184 65.918-51.4648L74.2676-53.6621Q74.8535-53.8086 75.3418-53.5156Q75.8301-53.2227 75.9766-52.6367Q76.2207-52.002 75.9033-51.4648Q75.5859-50.9277 75-50.7812ZM67.7734-44.3848Q67.1875-44.2383 66.626-44.5312Q66.0645-44.8242 65.918-45.459Q65.6738-46.9238 66.9922-47.2656L75.3418-49.4629Q75.9766-49.6094 76.4893-49.3164Q77.002-49.0234 77.1484-48.4863Q77.3926-47.8516 77.0508-47.3389Q76.709-46.8262 76.123-46.6797ZM98.4375-37.5488Q99.4629-38.3789 100.342-39.2822Q101.221-40.1855 102.002-41.1133Q105.518-45.2637 106.86-50.7812Q108.203-56.2988 106.689-62.0605L94.7754-58.4473Q94.1895-58.252 93.7744-58.2031Q93.3594-58.1543 92.9199-58.2031Z"/>
  </g>
  <g id="Regular-S" transform="matrix(1 0 0 1 1396.3 696)">
   <path d="M13.5742 5.61523Q16.7969 8.83789 20.8252 9.93652Q24.8535 11.0352 28.8086 9.79004Q32.7637 8.54492 35.8887 4.78516Q37.4512 2.88086 40.2832-1.19629Q43.1152-5.27344 46.7285-10.3516Q50.3418-15.4297 54.2236-20.4102Q58.1055-25.3906 61.6699-28.9551Q64.1113-31.3965 66.6992-32.2754Q69.2871-33.1543 71.9482-33.3252Q74.6094-33.4961 77.3193-33.7402Q80.0293-33.9844 82.7148-35.0586L76.3184-58.8867Q75.7324-61.084 76.6846-62.7197Q77.6367-64.3555 80.0781-65.0391L94.7266-68.8965Q94.3848-69.9707 93.4326-71.3867Q92.4805-72.8027 91.1621-74.1211Q87.793-77.6367 83.5693-79.3945Q79.3457-81.1523 74.8291-81.2256Q70.3125-81.2988 66.0889-79.7607Q61.8652-78.2227 58.5449-75.0488Q54.6875-71.3867 53.1494-67.7002Q51.6113-64.0137 51.3184-60.4248Q51.0254-56.8359 51.0254-53.5156Q51.0254-50.1953 50.3662-47.2656Q49.707-44.3359 47.2656-41.8945Q43.2617-37.8906 38.7451-34.4238Q34.2285-30.957 29.7363-27.9297Q25.2441-24.9023 21.2891-22.1436Q17.334-19.3848 14.4043-16.748Q10.7422-13.4766 9.47266-9.49707Q8.20312-5.51758 9.27734-1.58691Q10.3516 2.34375 13.5742 5.61523ZM24.6582-0.634766Q22.6562-0.634766 21.2158-2.05078Q19.7754-3.4668 19.7754-5.46875Q19.7754-7.4707 21.2158-8.88672Q22.6562-10.3027 24.6582-10.3027Q26.6602-10.3027 28.0762-8.88672Q29.4922-7.4707 29.4922-5.46875Q29.4922-3.4668 28.0762-2.05078Q26.6602-0.634766 24.6582-0.634766ZM60.2539-51.6602Q58.7891-51.2695 58.252-52.832Q58.0566-53.418 58.3984-53.9795Q58.7402-54.541 59.375-54.7363L68.5059-57.1777Q69.0918-57.3242 69.6777-57.0068Q70.2637-56.6895 70.4102-56.0547Q70.6543-55.3223 70.2881-54.7607Q69.9219-54.1992 69.2871-54.0527ZM61.4258-47.0215Q59.9609-46.6309 59.4238-48.2422Q59.2285-48.7793 59.5703-49.3408Q59.9121-49.9023 60.5469-50.0977L69.6777-52.5879Q70.2637-52.7344 70.8252-52.3926Q71.3867-52.0508 71.582-51.416Q71.8262-50.7324 71.46-50.1709Q71.0938-49.6094 70.459-49.4141ZM62.5977-42.4316Q61.9141-42.2363 61.3281-42.5781Q60.7422-42.9199 60.6445-43.6035Q60.3027-45.0684 61.7676-45.459L70.8496-47.9004Q71.5332-48.0957 72.0947-47.7783Q72.6562-47.4609 72.8027-46.875Q72.9492-46.1914 72.6074-45.6055Q72.2656-45.0195 71.6797-44.873ZM87.4512-37.1582Q88.4766-37.793 89.5264-38.5986Q90.5762-39.4043 91.6504-40.3809Q95.459-43.7988 97.1924-48.4131Q98.9258-53.0273 97.998-56.5918L86.6699-53.4668Q85.7422-53.2227 84.8877-53.125Q84.0332-53.0273 83.1055-53.1738Z"/>
  </g>
  <g id="Ultralight-S" transform="matrix(1 0 0 1 507.443 696)">
   <path d="M13.0745 6.20575Q15.934 9.11026 19.4401 10.0273Q22.9462 10.9444 26.4698 9.81293Q29.9934 8.68149 32.9369 5.3299Q35.453 2.5177 38.3759-1.65024Q41.2987-5.81818 44.6167-10.6239Q47.9347-15.4297 51.6804-20.2511Q55.426-25.0725 59.581-29.2274Q62.2498-31.9412 64.8602-32.8201Q67.4706-33.699 70.0863-33.7337Q72.702-33.7685 75.4803-33.8764Q78.2585-33.9844 81.3072-35.1494L74.5018-58.5686Q73.8251-60.8116 74.5731-62.788Q75.3212-64.7644 78.3981-65.5838L91.3666-69.0781Q90.934-69.7433 90.3675-70.4784Q89.801-71.2135 89.0732-71.9414Q86.0222-75.0031 82.1163-76.6018Q78.2104-78.2005 74.0345-78.3192Q69.8586-78.4378 65.9527-77.0359Q62.0468-75.634 58.9539-72.7333Q55.323-69.2528 53.944-65.7024Q52.565-62.1521 52.3174-58.654Q52.0699-55.1559 51.9562-51.722Q51.8425-48.288 50.8656-45.063Q49.8886-41.8381 46.9025-38.8519Q43.3075-35.257 38.8134-31.8127Q34.3193-28.3684 29.6909-25.1823Q25.0626-21.9963 20.9259-19.1013Q16.7892-16.2064 13.9046-13.7054Q10.5606-10.7521 9.42726-7.22656Q8.29391-3.70102 9.23195-0.201797Q10.17 3.29742 13.0745 6.20575ZM22.8416 0.637054Q21.067 0.637054 19.8307-0.574875Q18.5944-1.7868 18.5944-3.5614Q18.5944-5.29099 19.8307-6.52542Q21.067-7.75986 22.8416-7.75986Q24.5712-7.75986 25.7828-6.52542Q26.9943-5.29099 26.9943-3.5614Q26.9943-1.7868 25.7828-0.574875Q24.5712 0.637054 22.8416 0.637054ZM60.4355-50.8881Q59.4704-50.634 59.2056-51.5602Q59.1011-51.9646 59.3067-52.322Q59.5123-52.6794 59.9197-52.784L68.0061-54.953Q68.4105-55.0537 68.7466-54.85Q69.0826-54.6463 69.1841-54.2381Q69.2917-53.8689 69.1074-53.5118Q68.9232-53.1548 68.47-53.054ZM61.4258-46.5675Q60.4607-46.3127 60.1959-47.2885Q60.0914-47.644 60.297-48.0011Q60.5026-48.3582 60.91-48.4627L68.9964-50.6355Q69.4008-50.7362 69.7353-50.5306Q70.0699-50.325 70.1744-49.9176Q70.282-49.5514 70.0974-49.1943Q69.9127-48.8373 69.4603-48.7328ZM62.4161-42.2501Q62.0049-42.1455 61.6459-42.3512Q61.2869-42.5568 61.1893-42.968Q60.9383-43.8873 61.9041-44.1422L69.9417-46.3112Q70.3979-46.4157 70.7325-46.2345Q71.067-46.0533 71.1678-45.6032Q71.2692-45.2377 71.0636-44.8788Q70.858-44.5198 70.4536-44.4191ZM83.3191-36.0229Q84.7984-36.7943 86.3476-37.9177Q87.8967-39.0411 89.5615-40.6532Q92.3714-43.3899 93.9686-46.9597Q95.5658-50.5295 95.7275-53.7766L82.8552-50.2884Q81.7459-49.9985 80.8235-50.037Q79.9011-50.0755 79.155-50.3586Z"/>
  </g>
 </g>
</svg>
